<svg width="22" height="22" viewBox="0 0 22 22" fill="none" xmlns="http://www.w3.org/2000/svg">
<ellipse cx="11" cy="11" rx="11" ry="11" transform="rotate(-90 11 11)" fill="url(#paint0_linear_849_267)"/>
<path fill-rule="evenodd" clip-rule="evenodd" d="M20.0796 17.2116C18.0977 20.1031 14.7704 22 11 22C8.63055 22 6.43605 21.2508 4.64049 19.9764C4.79373 19.9113 4.9561 19.8449 5.12665 19.7752C6.25509 19.3138 7.74208 18.7059 9.31697 17.353C11.2812 15.6657 10.0265 14.8149 8.57257 13.8292C7.71011 13.2444 6.77754 12.6121 6.40521 11.7295C5.72362 10.1137 8.0277 9.3716 10.1703 8.68155C11.1712 8.35919 12.1368 8.04818 12.7464 7.66476C14.0052 6.87294 12.3405 5.50005 12.3405 5.50005C12.3405 5.50005 17.2052 8.06476 12.3405 10.0412C9.40804 11.2326 14.8503 13.5902 17.2052 14.3589C17.9563 14.604 19.4918 15.586 20.0796 17.2116Z" fill="#101010"/>
<defs>
<linearGradient id="paint0_linear_849_267" x1="23.3023" y1="11" x2="-1.53855" y2="11.3756" gradientUnits="userSpaceOnUse">
<stop stop-color="#BD094A"/>
<stop offset="1" stop-color="#FCC400"/>
</linearGradient>
</defs>
</svg>
